<?xml version="1.0" encoding="UTF-8"?>
<!DOCTYPE svg PUBLIC "-//W3C//DTD SVG 1.1//EN" "http://www.w3.org/Graphics/SVG/1.1/DTD/svg11.dtd">
<!-- Creator: CorelDRAW -->
<svg xmlns="http://www.w3.org/2000/svg" xml:space="preserve" width="45px" height="45px" style="shape-rendering:geometricPrecision; text-rendering:geometricPrecision; image-rendering:optimizeQuality; fill-rule:evenodd; clip-rule:evenodd"
viewBox="0 0 2048 2048"
 xmlns:xlink="http://www.w3.org/1999/xlink">
 <defs>
  <style type="text/css">
   <![CDATA[
    .fil2 {fill:none}
    .fil6 {fill:#263238}
    .fil7 {fill:#37474F}
    .fil3 {fill:#546E7A}
    .fil8 {fill:#7CB342}
    .fil4 {fill:#BBDEFB}
    .fil1 {fill:#E53935}
    .fil0 {fill:#FF5722}
    .fil5 {fill:#FF6F00}
   ]]>
  </style>
   <clipPath id="id0">
    <path d="M1024 -0.0011811c565.541,0 1024,458.461 1024,1024 0,565.541 -458.461,1024 -1024,1024 -565.541,0 -1024,-458.461 -1024,-1024 0,-565.541 458.461,-1024 1024,-1024z"/>
   </clipPath>
 </defs>
 <g id="Layer_x0020_1">
  <metadata id="CorelCorpID_0Corel-Layer"/>
  <path class="fil0" d="M1024 -0.0011811c565.541,0 1024,458.461 1024,1024 0,565.541 -458.461,1024 -1024,1024 -565.541,0 -1024,-458.461 -1024,-1024 0,-565.541 458.461,-1024 1024,-1024z"/>
  <g style="clip-path:url(#id0)">
   <g id="_466417696">
    <g>
     <polygon id="_4625412881" class="fil1" points="1584,463.999 2719.88,1599.88 2719.88,1623.22 1584,487.333 "/>
     <polygon id="_462540928" class="fil1" points="1584,487.333 2719.88,1623.22 2719.88,2696.55 1584,1560.67 "/>
     <polygon id="_462540472" class="fil1" points="1584,1560.67 2719.88,2696.55 2719.88,2719.88 1584,1584 "/>
     <polygon id="_462541792" class="fil1" points="1584,1584 2719.88,2719.88 2696.55,2719.88 1560.67,1584 "/>
     <polygon id="_462541864" class="fil1" points="1560.67,1584 2696.55,2719.88 1623.21,2719.88 487.333,1584 "/>
     <polygon id="_462540352" class="fil1" points="487.333,1584 1623.21,2719.88 1599.88,2719.88 463.999,1584 "/>
    </g>
    <polygon id="_466412776" class="fil1" points="487.333,463.999 1560.67,463.999 1584,463.999 1584,487.333 1584,1560.67 1584,1584 1560.67,1584 487.333,1584 463.999,1584 463.999,1560.67 463.999,487.333 463.999,463.999 "/>
   </g>
  </g>
  <path class="fil2" d="M1024 -0.0011811c565.541,0 1024,458.461 1024,1024 0,565.541 -458.461,1024 -1024,1024 -565.541,0 -1024,-458.461 -1024,-1024 0,-565.541 458.461,-1024 1024,-1024z"/>
  <polygon class="fil3" points="487.333,463.999 1560.67,463.999 1584,463.999 1584,487.333 1584,1560.67 1584,1584 1560.67,1584 487.333,1584 463.999,1584 463.999,1560.67 463.999,487.333 463.999,463.999 "/>
  <polygon class="fil4" points="510.665,510.665 510.665,1537.33 1537.33,1537.33 1537.33,510.665 "/>
  <path class="fil5" d="M822.264 652.799c35.4851,0 67.6146,14.3858 90.8729,37.6429 23.2571,23.2571 37.6429,55.3878 37.6429,90.8741 0,35.4851 -14.3858,67.6146 -37.6429,90.8729 -23.2583,23.2571 -55.3878,37.6429 -90.8729,37.6429 -35.4862,0 -67.617,-14.387 -90.8729,-37.6429 -23.2583,-23.2583 -37.6441,-55.3878 -37.6441,-90.8729 0,-35.4862 14.387,-67.617 37.6441,-90.8741 23.2559,-23.2559 55.3867,-37.6429 90.8729,-37.6429z"/>
  <polygon class="fil6" points="1037.78,992.945 1196.65,1433.99 1204.28,1455.17 1178.69,1455.17 990.287,1455.17 773.351,1455.17 743.706,1455.17 743.603,1455.17 1023.7,953.857 1023.95,954.551 "/>
  <polygon class="fil7" points="1299.17,793.973 1526.42,1424.87 1537.33,1455.17 1500.73,1455.17 1231.23,1455.17 920.91,1455.17 878.503,1455.17 878.355,1455.17 1279.03,738.058 1279.39,739.052 "/>
  <path class="fil8" d="M510.665 1480.41l0 56.9197 1026.67 0 0 -83.0906c-104.184,-48.0461 -284.697,-79.8213 -489.965,-79.8213 -240.594,0 -447.186,43.6489 -536.703,105.992z"/>
 </g>
</svg>
